<svg xmlns="http://www.w3.org/2000/svg" width="64" height="64" viewBox="0 0 64 64">
  <g>
    <path d="M.3,51.289H28.16V45.336H10.6A64.565,64.565,0,0,0,22.147,34.62c3.215-3.87,4.822-7.5,4.822-11.014a10.627,10.627,0,0,0-3.691-8.335,13.979,13.979,0,0,0-9.347-3.156A16.758,16.758,0,0,0,.893,18.188l3.572,4.286c3.155-2.917,6.132-4.405,8.93-4.405A6.538,6.538,0,0,1,18.218,19.8a5.973,5.973,0,0,1,1.726,4.346c0,2.322-1.369,5.061-4.167,8.216C12.979,35.572,7.8,40.454.3,46.943Z" fill="#1b52f5"/>
    <path d="M40.662,32a20.764,20.764,0,0,1,2.144-10.121c1.428-2.56,3.393-3.81,5.894-3.81s4.465,1.25,5.893,3.81A21.493,21.493,0,0,1,56.677,32a21.233,21.233,0,0,1-2.084,10.061c-1.428,2.56-3.393,3.87-5.893,3.87s-4.466-1.31-5.894-3.87A20.514,20.514,0,0,1,40.662,32Zm-7.025,0c0,5.834,1.429,10.6,4.227,14.288a13.229,13.229,0,0,0,21.611,0C62.333,42.6,63.7,37.834,63.7,32s-1.369-10.6-4.227-14.348a13.312,13.312,0,0,0-21.611,0C35.066,21.4,33.637,26.166,33.637,32Z" fill="#1b52f5"/>
  </g>
</svg>
