<svg xmlns="http://www.w3.org/2000/svg" width="64" height="64" viewBox="0 0 64 64">
  <path d="M26.377,60.421H3.893a3.5,3.5,0,0,1-3.5-3.5V7.325a3.5,3.5,0,0,1,3.5-3.5H26.377a3.5,3.5,0,0,1,3.5,3.5v49.6A3.5,3.5,0,0,1,26.377,60.421Zm-18.984-7H22.877v-42.6H7.393Z" fill="#1b52f5"/>
  <rect x="11.63" y="13.608" width="7.684" height="24.634" fill="#1b52f5"/>
  <path d="M60.107,60.421H37.624a3.5,3.5,0,0,1-3.5-3.5V7.325a3.5,3.5,0,0,1,3.5-3.5H60.107a3.5,3.5,0,0,1,3.5,3.5v49.6A3.5,3.5,0,0,1,60.107,60.421Zm-18.983-7H56.607v-42.6H41.124Z" fill="#1b52f5"/>
  <rect x="45.369" y="13.608" width="7.217" height="24.634" fill="#1b52f5"/>
</svg>
