<svg xmlns="http://www.w3.org/2000/svg" width="64" height="64" viewBox="0 0 64 64">
  <path d="M19.114,62.021h-5V5.452a2.5,2.5,0,0,1,2.5-2.5A16.444,16.444,0,0,1,21.9,4.157c4.834,1.65,12.14,4.144,27.85-2.007A2.5,2.5,0,0,1,53.16,4.5a57.722,57.722,0,0,1-.908,7.134c-.754,4.685-1.789,11.1-1.189,14.055a2.5,2.5,0,0,1-1.391,2.762c-13.589,6.355-22.635,2.513-28.623-.028-.67-.284-1.325-.563-1.935-.8Zm0-39.682A34.422,34.422,0,0,1,23,23.82c5.218,2.215,12.27,5.21,22.915.821-.208-3.838.638-9.085,1.4-13.8.147-.911.291-1.8.417-2.635-14.882,4.975-22.657,2.322-27.449.687-.413-.141-.8-.274-1.17-.392Z" fill="#1b52f5"/>
</svg>
