<svg xmlns="http://www.w3.org/2000/svg" width="64" height="64" viewBox="0 0 64 64">
  <g>
    <path d="M.03,46.884c3.155,3.155,7.442,4.7,12.859,4.7,4.525,0,8.276-1.131,11.193-3.453a11.787,11.787,0,0,0,4.346-9.645,10.47,10.47,0,0,0-3.394-8.1,13.589,13.589,0,0,0-8.573-3.453L26.4,18.188V12.413H1.7v5.954h15.36L4.912,29.083l2.619,4.405a10.659,10.659,0,0,1,5.537-1.428,9.353,9.353,0,0,1,6.072,1.845A5.72,5.72,0,0,1,21.4,38.43a6.545,6.545,0,0,1-2.441,5.179,10.092,10.092,0,0,1-6.609,2.084A12.206,12.206,0,0,1,3.364,42.24Z" fill="#1b52f5"/>
    <path d="M39.978,50.992h7.2L63.97,16.759V12.413H35.334v5.954H56.35Z" fill="#1b52f5"/>
  </g>
</svg>
