<?xml version="1.0" encoding="UTF-8" standalone="no"?>
<!DOCTYPE svg PUBLIC "-//W3C//DTD SVG 1.1//EN" "http://www.w3.org/Graphics/SVG/1.1/DTD/svg11.dtd">
<svg width="100%" height="100%" viewBox="0 0 45 45" version="1.1" xmlns="http://www.w3.org/2000/svg" xmlns:xlink="http://www.w3.org/1999/xlink" xml:space="preserve" xmlns:serif="http://www.serif.com/" style="fill-rule:evenodd;clip-rule:evenodd;stroke-miterlimit:1;">
    <g transform="matrix(1,0,0,1,-2487.33,-4901.67)">
        <g transform="matrix(1,0,0,9.26057,0,4879.61)">
            <g transform="matrix(1,0,0,1,270.838,0.0927304)">
                <g transform="matrix(1.03986,0,0,0.112289,-5023.68,-239.367)">
                    <path d="M6968.94,2186.21C6966.06,2182.78 6964.33,2178.36 6964.33,2173.54C6964.33,2168.72 6966.06,2164.3 6968.94,2160.88C6972.53,2162.97 6977.99,2164.27 6984.08,2164.27C6990.18,2164.27 6995.63,2162.97 6999.22,2160.88C7002.1,2164.3 7003.83,2168.72 7003.83,2173.54C7003.83,2178.36 7002.1,2182.78 6999.22,2186.21C6995.63,2184.12 6990.18,2182.82 6984.08,2182.82C6977.99,2182.82 6972.53,2184.12 6968.94,2186.21Z" style="fill:none;stroke:rgb(0,77,255);stroke-width:2.4px;"/>
                </g>
                <g transform="matrix(0.47347,0,0,0.108852,-1354.03,-396.127)">
                    <circle cx="7588.3" cy="3682.28" r="20.376" style="fill:none;stroke:rgb(0,77,255);stroke-width:3.17px;stroke-linecap:round;stroke-linejoin:round;stroke-miterlimit:1.5;"/>
                </g>
                <g transform="matrix(2.89917e-17,0.0511276,-1.00804,6.66529e-18,5950.67,-381.189)">
                    <path d="M7575.36,3697.9C7570.77,3694.19 7567.92,3688.56 7567.92,3682.28C7567.92,3675.99 7570.77,3670.37 7575.36,3666.66C7584.88,3670.39 7590.93,3676 7590.93,3682.28C7590.93,3688.55 7584.88,3694.16 7575.36,3697.9Z" style="fill:none;stroke:rgb(0,77,255);stroke-width:3.17px;stroke-linecap:round;stroke-linejoin:round;stroke-miterlimit:1.5;"/>
                </g>
                <g transform="matrix(2.89917e-17,0.0511276,-1.00804,6.66529e-18,5950.67,-385.356)">
                    <path d="M7601.23,3697.9C7591.72,3694.16 7585.67,3688.55 7585.67,3682.28C7585.67,3676 7591.72,3670.39 7601.23,3666.66C7605.82,3670.37 7608.67,3675.99 7608.67,3682.28C7608.67,3688.56 7605.82,3694.19 7601.23,3697.9Z" style="fill:none;stroke:rgb(0,77,255);stroke-width:3.17px;stroke-linecap:round;stroke-linejoin:round;stroke-miterlimit:1.5;"/>
                </g>
                <g transform="matrix(1,0,0,0.107985,0,-526.923)">
                    <path d="M2218.26,4923.11L2259.34,4923.11" style="fill:none;stroke:rgb(0,77,255);stroke-width:2.5px;"/>
                </g>
                <g transform="matrix(1,0,0,0.107985,-0.296482,-526.923)">
                    <path d="M2239.1,4902.57L2239.1,4943.65" style="fill:none;stroke:rgb(0,77,255);stroke-width:2.5px;"/>
                </g>
            </g>
        </g>
    </g>
</svg>
