<?xml version="1.0" encoding="UTF-8" standalone="no"?>
<!DOCTYPE svg PUBLIC "-//W3C//DTD SVG 1.1//EN" "http://www.w3.org/Graphics/SVG/1.1/DTD/svg11.dtd">
<svg width="100%" height="100%" viewBox="0 0 66 94" version="1.1" xmlns="http://www.w3.org/2000/svg" xmlns:xlink="http://www.w3.org/1999/xlink" xml:space="preserve" xmlns:serif="http://www.serif.com/" style="fill-rule:evenodd;clip-rule:evenodd;stroke-linecap:round;stroke-miterlimit:1.5;">
    <g transform="matrix(1,0,0,9.26057,-170.247,-9819.12)">
        <g transform="matrix(1.509,0,0,0.0488599,-7628.69,596.453)">
            <path d="M5199.49,9534.35L5199.49,9514.37C5199.49,9511.54 5198.82,9508.82 5197.62,9506.82C5196.42,9504.82 5194.8,9503.69 5193.11,9503.69C5191.18,9503.69 5189.06,9503.69 5187.13,9503.69C5185.44,9503.69 5183.82,9504.82 5182.62,9506.82C5181.42,9508.82 5180.75,9511.54 5180.75,9514.37C5180.75,9531.94 5180.75,9565.05 5180.75,9565.05" style="fill:none;stroke:rgb(0,77,255);stroke-width:4.49px;"/>
        </g>
        <g transform="matrix(1,0,0,0.107985,-5066.72,-393.889)">
            <path d="M5269.94,13495.9C5286.99,13495.9 5300.83,13509.8 5300.83,13526.8C5300.83,13543.9 5286.99,13557.7 5269.94,13557.7C5252.89,13557.7 5239.05,13543.9 5239.05,13526.8C5239.05,13509.8 5252.89,13495.9 5269.94,13495.9ZM5269.94,13507.4C5280.68,13507.4 5289.41,13516.1 5289.41,13526.8C5289.41,13537.6 5280.68,13546.3 5269.94,13546.3C5259.19,13546.3 5250.47,13537.6 5250.47,13526.8C5250.47,13516.1 5259.19,13507.4 5269.94,13507.4Z" style="fill:none;stroke:rgb(0,77,255);stroke-width:4.17px;stroke-linejoin:round;"/>
        </g>
    </g>
</svg>
