<?xml version="1.0" encoding="UTF-8" standalone="no"?>
<!DOCTYPE svg PUBLIC "-//W3C//DTD SVG 1.1//EN" "http://www.w3.org/Graphics/SVG/1.1/DTD/svg11.dtd">
<svg width="100%" height="100%" viewBox="0 0 66 47" version="1.1" xmlns="http://www.w3.org/2000/svg" xmlns:xlink="http://www.w3.org/1999/xlink" xml:space="preserve" xmlns:serif="http://www.serif.com/" style="fill-rule:evenodd;clip-rule:evenodd;stroke-linejoin:round;stroke-miterlimit:2;">
    <g transform="matrix(1,0,0,1,-5147.78,-9339.04)">
        <path d="M5152.14,9383.65C5151.42,9381.82 5150.88,9379.9 5150.53,9377.92C5150.19,9376.01 5150.03,9374.03 5150.07,9372.01C5150.21,9363.6 5153.74,9356.03 5159.35,9350.61C5164.89,9345.26 5172.45,9342.02 5180.75,9342.16C5188.93,9342.3 5196.28,9345.75 5201.56,9351.2C5206.76,9356.59 5209.9,9363.94 5209.76,9372.01C5209.73,9373.91 5209.51,9375.77 5209.13,9377.56C5208.73,9379.4 5208.16,9381.18 5207.44,9382.87C5207,9383.93 5207.52,9385.15 5208.58,9385.58C5209.65,9386.02 5210.86,9385.51 5211.3,9384.44C5212.06,9382.48 5212.64,9380.44 5213.01,9378.32C5213.38,9376.27 5213.56,9374.17 5213.52,9372.01C5213.36,9363.02 5209.62,9354.93 5203.62,9349.14C5197.7,9343.42 5189.62,9339.93 5180.75,9340.08C5172,9340.23 5164.12,9343.89 5158.47,9349.73C5152.9,9355.5 5149.51,9363.37 5149.66,9372.01C5149.69,9374.05 5149.92,9376.04 5150.33,9377.96C5150.75,9379.94 5151.36,9381.84 5152.14,9383.65Z" style="fill:rgb(0,77,255);"/>
    </g>
    <g transform="matrix(1,0,0,1,-5147.78,-9339.04)">
        <path d="M5180.75,9369.26L5201.26,9352.29L5197.72,9348.76L5180.75,9369.26Z" style="fill:rgb(0,77,255);"/>
    </g>
</svg>
