<svg xmlns="http://www.w3.org/2000/svg" viewBox="0 0 33.33 33.32"><defs><style>.cls-1{fill:#004dff;}</style></defs><g id="Layer_2" data-name="Layer 2"><g id="Layer_1-2" data-name="Layer 1"><path class="cls-1" d="M32,10.11c1.45-3.75,1.35-6.74-.34-8.43S27-.11,23.21,1.34A16.66,16.66,0,0,0,0,16.66a16.47,16.47,0,0,0,1.35,6.55C-.11,27,0,30,1.68,31.63A5.12,5.12,0,0,0,5.46,33a13.16,13.16,0,0,0,4.67-1A16.66,16.66,0,0,0,32,10.11ZM25.64,2.63c2.11-.55,3.73-.39,4.59.47s1,2.48.46,4.59l0-.06c-.27-.42-.57-.83-.87-1.22l-.17-.22a16.76,16.76,0,0,0-2.45-2.46l-.33-.24c-.35-.27-.71-.54-1.09-.78Zm-9-.63a14.54,14.54,0,0,1,6.25,1.42c.32.15.64.31.94.48l.32.19c.27.17.55.33.81.51l.41.31c.22.16.44.32.65.5s.32.29.48.43A14.7,14.7,0,0,1,27.7,7c.07.08.15.15.21.23.25.3.48.61.71.92,0,0,.06.08.08.12a13.6,13.6,0,0,1,1,1.77,39.18,39.18,0,0,1-8.18,11.38A39.28,39.28,0,0,1,10,29.71l-.51-.26c-.22-.12-.43-.25-.64-.39s-.32-.19-.48-.3-.6-.44-.89-.67L7.33,28A13.86,13.86,0,0,1,5.41,26c-.2-.24-.38-.49-.56-.74a3.4,3.4,0,0,1-.23-.3q-.33-.48-.63-1l-.06-.1c-.21-.38-.41-.76-.59-1.16A14.63,14.63,0,0,1,16.67,2Zm-9,28.69c-2.11.55-3.73.4-4.59-.47s-1-2.48-.46-4.59a.35.35,0,0,1,0,.08c.26.39.54.77.83,1.15l.22.3c.32.39.66.76,1,1.12l.45.44q.45.44.93.84l.58.43c.27.2.54.4.82.59C7.59,30.61,7.64,30.66,7.69,30.69Zm9,.63a14.4,14.4,0,0,1-4.12-.6A43.24,43.24,0,0,0,23,22.88,43.81,43.81,0,0,0,30.74,12.6a14.34,14.34,0,0,1,.59,4.06A14.68,14.68,0,0,1,16.67,31.32Z"/></g></g></svg>