<svg xmlns="http://www.w3.org/2000/svg" width="270.031" height="270.031" viewBox="0 0 270.031 270.031">
  <g>
    <path d="M163.509,10a96.522,96.522,0,1,1-96.522,96.522A96.631,96.631,0,0,1,163.509,10m0-10A106.522,106.522,0,1,0,270.031,106.522,106.521,106.521,0,0,0,163.509,0Z" fill="#1b52f5"/>
    <circle cx="163.509" cy="106.522" r="25.11" fill="#1b52f5"/>
    <path d="M0,163.509l56.987,49.534V106.522A56.987,56.987,0,0,1,0,163.509Z" fill="none"/>
    <path d="M163.509,213.043H56.987l49.535,56.988A56.987,56.987,0,0,1,163.509,213.043Z" fill="none"/>
  </g>
</svg>
